<svg width="59.426758px" height="19.023926px" viewBox="0 0 59.426758 19.023926" version="1.1" xmlns="http://www.w3.org/2000/svg">
    <path d="M11.3511 11.7729L6.57861 11.7729C5.92822 11.7729 5.52393 11.8257 5.36572 11.9312C5.20752 12.0366 4.99658 12.3882 4.73291 12.9858L3.87598 14.9238C3.48926 15.8115 3.2959 16.4707 3.2959 16.9014C3.2959 17.3145 3.39917 17.6133 3.60571 17.7979C3.81226 17.9824 4.21875 18.1406 4.8252 18.2725C5.08887 18.3252 5.2251 18.4307 5.23389 18.5889C5.24268 18.7383 5.11963 18.813 4.86475 18.813C4.76807 18.813 4.61865 18.8086 4.4165 18.7998L3.15088 18.7339C2.729 18.7163 2.24121 18.7075 1.6875 18.7075C1.43262 18.7075 1.23486 18.7119 1.09424 18.7207C0.645992 18.7559 0.399902 18.7734 0.355957 18.7734C0.118652 18.7734 0 18.6943 0 18.5361C0 18.3955 0.074707 18.3032 0.224121 18.2593L0.711914 18.1143C0.887695 18.0615 1.125 17.8484 1.42383 17.4749C1.72266 17.1013 1.96875 16.7124 2.16211 16.3081L2.54443 15.438L9.3208 0.395508C9.43506 0.131836 9.5625 0 9.70313 0C9.84375 0 9.9624 0.127441 10.0591 0.382324L15.728 14.8843L16.0181 15.5962C16.4312 16.6597 16.7739 17.321 17.0464 17.5803C17.3188 17.8396 17.8726 18.0439 18.7075 18.1934C18.98 18.2461 19.1118 18.356 19.103 18.5229C19.0942 18.6724 18.9712 18.7471 18.7339 18.7471C18.6548 18.7471 18.4878 18.7383 18.2329 18.7207C17.7759 18.6768 16.9629 18.6548 15.7939 18.6548C14.5723 18.6548 13.8076 18.6812 13.5 18.7339C13.3154 18.769 13.1792 18.7866 13.0913 18.7866C12.8628 18.7866 12.7485 18.6943 12.7485 18.5098C12.7485 18.3691 12.8584 18.2769 13.0781 18.2329L13.4868 18.1406C13.9263 18.0527 14.146 17.7539 14.146 17.2441C14.146 16.7783 13.8779 15.8511 13.3418 14.4624L12.6826 12.7222C12.498 12.2388 12.353 11.9597 12.2476 11.885C12.1421 11.8103 11.8433 11.7729 11.3511 11.7729ZM11.5093 9.66357L9.43945 4.44287L9.33398 4.16602C9.22852 3.88477 9.11426 3.73975 8.99121 3.73096C8.92969 3.72217 8.85938 3.80566 8.78027 3.98145L6.20947 9.68994C6.09521 9.93604 6.03809 10.0986 6.03809 10.1777C6.03809 10.4063 6.24023 10.5205 6.64453 10.5205L7.00049 10.5337L10.9819 10.5337C11.4214 10.5337 11.6411 10.4238 11.6411 10.2041C11.6411 10.1426 11.6191 10.0415 11.5752 9.90088L11.5093 9.66357ZM23.9441 2.76855L23.9441 13.7637L23.931 15.0425L23.9705 16.1499C24.0672 17.2134 24.4627 17.833 25.157 18.0088C25.6404 18.1406 26.0052 18.2065 26.2513 18.2065C26.5149 18.2065 26.6512 18.2856 26.66 18.4438C26.6775 18.6724 26.5237 18.7866 26.1985 18.7866C26.0491 18.7866 25.7547 18.769 25.3152 18.7339C25.034 18.7163 24.577 18.7075 23.9441 18.7075L23.0081 18.6812L21.9798 18.6943C21.4612 18.6943 21.0701 18.7119 20.8064 18.7471C20.4637 18.791 20.2132 18.813 20.055 18.813C19.8265 18.813 19.7122 18.7251 19.7122 18.5493C19.7122 18.3823 19.8572 18.2769 20.1473 18.2329C20.8328 18.1274 21.3008 17.7407 21.5513 17.0728C21.8018 16.4048 21.927 15.2007 21.927 13.4604L21.927 5.45801C21.927 3.6123 21.8172 2.44556 21.5975 1.95776C21.3777 1.46997 20.8284 1.17773 19.9495 1.08105C19.7122 1.06348 19.5979 0.975586 19.6067 0.817383C19.6155 0.615234 19.7869 0.51416 20.1209 0.51416C20.2879 0.51416 20.512 0.536133 20.7933 0.580078C21.347 0.65918 21.804 0.69873 22.1644 0.69873C22.7269 0.69873 23.5442 0.650391 24.6165 0.553711C25.1702 0.509766 25.6228 0.487793 25.9744 0.487793C27.8113 0.487793 29.3033 0.92944 30.4502 1.81274C31.5972 2.69605 32.1707 3.8496 32.1707 5.27344C32.1707 6.9961 31.4676 8.354 30.0613 9.34717C29.0066 10.0855 27.8904 10.4546 26.7127 10.4546C26.159 10.4546 25.6514 10.3931 25.19 10.27C24.7286 10.147 24.5066 10.0151 24.5242 9.87451C24.5418 9.76904 24.6253 9.71631 24.7747 9.71631C24.845 9.71631 24.9329 9.72949 25.0384 9.75586C25.2405 9.81738 25.5657 9.84814 26.014 9.84814C27.2796 9.84814 28.2925 9.50098 29.0528 8.80664C29.813 8.1123 30.1932 7.18946 30.1932 6.03809C30.1932 4.71093 29.6922 3.61231 28.6902 2.74219C27.6883 1.87207 26.4183 1.43701 24.8802 1.43701C24.5286 1.43701 24.2869 1.50293 24.1551 1.63477C24.0232 1.7666 23.9573 2.01709 23.9573 2.38623L23.9441 2.76855ZM38.1852 2.76855L38.1852 13.7637L38.172 15.0425L38.2115 16.1499C38.3082 17.2134 38.7037 17.833 39.398 18.0088C39.8814 18.1406 40.2462 18.2065 40.4923 18.2065C40.756 18.2065 40.8922 18.2856 40.901 18.4438C40.9186 18.6724 40.7647 18.7866 40.4396 18.7866C40.2901 18.7866 39.9957 18.769 39.5563 18.7339C39.275 18.7163 38.818 18.7075 38.1852 18.7075L37.2491 18.6812L36.2208 18.6943C35.7022 18.6943 35.3111 18.7119 35.0475 18.7471C34.7047 18.791 34.4542 18.813 34.296 18.813C34.0675 18.813 33.9532 18.7251 33.9532 18.5493C33.9532 18.3823 34.0982 18.2769 34.3883 18.2329C35.0738 18.1274 35.5418 17.7407 35.7923 17.0728C36.0428 16.4048 36.1681 15.2007 36.1681 13.4604L36.1681 5.45801C36.1681 3.6123 36.0582 2.44556 35.8385 1.95776C35.6187 1.46997 35.0694 1.17773 34.1905 1.08105C33.9532 1.06348 33.839 0.975586 33.8477 0.817383C33.8565 0.615234 34.0279 0.51416 34.3619 0.51416C34.5289 0.51416 34.753 0.536133 35.0343 0.580078C35.588 0.65918 36.045 0.69873 36.4054 0.69873C36.9679 0.69873 37.7852 0.650391 38.8575 0.553711C39.4112 0.509766 39.8639 0.487793 40.2154 0.487793C42.0524 0.487793 43.5443 0.92944 44.6913 1.81274C45.8382 2.69605 46.4117 3.8496 46.4117 5.27344C46.4117 6.9961 45.7086 8.354 44.3023 9.34717C43.2477 10.0855 42.1315 10.4546 40.9537 10.4546C40.4 10.4546 39.8924 10.3931 39.431 10.27C38.9696 10.147 38.7477 10.0151 38.7652 9.87451C38.7828 9.76904 38.8663 9.71631 39.0157 9.71631C39.086 9.71631 39.1739 9.72949 39.2794 9.75586C39.4815 9.81738 39.8067 9.84814 40.255 9.84814C41.5206 9.84814 42.5335 9.50098 43.2938 8.80664C44.0541 8.1123 44.4342 7.18946 44.4342 6.03809C44.4342 4.71093 43.9332 3.61231 42.9313 2.74219C41.9293 1.87207 40.6593 1.43701 39.1212 1.43701C38.7696 1.43701 38.5279 1.50293 38.3961 1.63477C38.2643 1.7666 38.1983 2.01709 38.1983 2.38623L38.1852 2.76855ZM53.8632 0.316406C54.8036 0.316406 55.599 0.452637 56.2494 0.725098L57.1591 1.10742C57.2382 1.14258 57.3173 1.16016 57.3964 1.16016C57.5019 1.16016 57.6073 1.11621 57.7128 1.02832L57.8974 0.870117C57.9237 0.834961 57.9721 0.817383 58.0424 0.817383C58.2621 0.808594 58.372 1.02392 58.372 1.46338C58.372 1.61279 58.4291 2.05664 58.5434 2.79492L58.7543 4.15283C58.7982 4.44287 58.8202 4.62305 58.8202 4.69336C58.8202 4.96582 58.7279 5.10205 58.5434 5.10205C58.4027 5.10205 58.2621 4.89111 58.1215 4.46924C57.8051 3.52002 57.1613 2.7378 56.1901 2.12256C55.2189 1.50732 54.1357 1.19971 52.9403 1.19971C51.9911 1.19971 51.1979 1.47876 50.5607 2.03687C49.9235 2.59497 49.6049 3.2915 49.6049 4.12646C49.6049 4.86475 49.8114 5.50195 50.2245 6.03809C50.5849 6.49512 50.9782 6.8291 51.4044 7.04004C51.8307 7.25098 52.8788 7.6333 54.5487 8.18701C57.8007 9.2505 59.4267 10.9951 59.4267 13.4209C59.4267 15.0645 58.829 16.4092 57.6337 17.4551C56.4384 18.501 54.9047 19.0239 53.0326 19.0239C52.3559 19.0239 51.611 18.9272 50.798 18.7339C49.985 18.5405 49.3895 18.3164 49.0116 18.0615C48.8534 17.9561 48.7479 17.844 48.6952 17.7253C48.6425 17.6067 48.5634 17.3013 48.4579 16.8091C48.4403 16.7388 48.3305 16.3389 48.1283 15.6094C47.8998 14.8184 47.7855 14.2559 47.7855 13.9219C47.7855 13.6582 47.8734 13.5308 48.0492 13.5396C48.2074 13.5483 48.348 13.7637 48.4711 14.1855C48.7875 15.2754 49.4555 16.1894 50.475 16.9277C51.4945 17.666 52.6019 18.0352 53.7973 18.0352C55.0102 18.0352 56.0363 17.6792 56.8756 16.9673C57.715 16.2554 58.1347 15.3897 58.1347 14.3701C58.1347 13.3945 57.748 12.5728 56.9745 11.9048C56.579 11.562 55.4364 11.0742 53.5468 10.4414C51.5956 9.78222 50.2135 9.05274 49.4005 8.25293C48.5875 7.45312 48.1811 6.41602 48.1811 5.1416C48.1811 3.71777 48.7106 2.55762 49.7697 1.66113C50.8288 0.764645 52.1933 0.316406 53.8632 0.316406Z" id="APPS" fill="#000000" fill-rule="evenodd" stroke="none" />
</svg>