<?xml version="1.0" encoding="utf-8"?>
<svg width="647px" height="304px" viewBox="0 0 647 304" version="1.1" xmlns:xlink="http://www.w3.org/1999/xlink" xmlns="http://www.w3.org/2000/svg">
  <g id="DesktopFormCheckoutCart">
    <g id="Group">
      <path d="M586.06 35.272L562.976 278.502C562.174 286.947 544.399 293.867 523.538 293.867L123.462 293.867C102.566 293.867 84.8263 286.952 84.0244 278.502L60.9402 35.272C60.6748 32.4758 54.8663 30.2963 47.9665 30.4038C41.0667 30.5114 35.6885 32.8653 35.9539 35.6615L59.0381 278.892C60.3565 292.783 89.133 304 123.462 304L523.538 304C557.826 304 586.644 292.781 587.962 278.892L611.046 35.6615C611.311 32.8653 605.933 30.5114 599.033 30.4038C592.134 30.2963 586.325 32.4758 586.06 35.272Z" id="Shape" fill="#448AFF" fill-rule="evenodd" stroke="none" />
      <path d="M323.5 81.0667L323.5 253.333C323.5 256.132 331.546 258.4 341.472 258.4C351.398 258.4 359.444 256.132 359.444 253.333L359.444 81.0667C359.444 78.2684 351.398 76 341.472 76C331.546 76 323.5 78.2684 323.5 81.0667Z" id="Shape" fill="#448AFF" fill-rule="evenodd" stroke="none" />
      <path d="M179.727 81.2157L191.709 253.482C191.903 256.279 197.423 258.48 204.037 258.398C210.652 258.315 215.856 255.981 215.661 253.184L203.68 80.9178C203.485 78.1207 197.966 75.92 191.351 76.0022C184.737 76.0845 179.533 78.4186 179.727 81.2157Z" id="Shape" fill="#448AFF" fill-rule="evenodd" stroke="none" />
      <path d="M443.32 80.9178L431.339 253.184C431.144 255.981 436.348 258.315 442.963 258.398C449.577 258.48 455.097 256.279 455.291 253.482L467.272 81.2157C467.467 78.4186 462.263 76.0845 455.648 76.0022C449.034 75.92 443.515 78.1207 443.32 80.9178Z" id="Shape" fill="#448AFF" fill-rule="evenodd" stroke="none" />
      <path d="M12.4423 45.6L634.558 45.6C641.429 45.6 647 42.1974 647 38C647 33.8026 641.429 30.4 634.558 30.4L12.4423 30.4C5.57061 30.4 0 33.8026 0 38C0 42.1974 5.57061 45.6 12.4423 45.6Z" id="Shape" fill="#448AFF" fill-rule="evenodd" stroke="none" />
      <path d="M204.153 30.4L218.233 17.6336C222.981 13.3291 238.405 9.54266 251.141 9.54266L395.859 9.54266C408.667 9.54266 423.993 13.3056 428.767 17.6336L442.847 30.4L467.278 26.8559L453.197 14.0895C444.428 6.13858 419.427 0 395.859 0L251.141 0C227.646 0 202.547 6.16182 193.803 14.0895L179.722 26.8559L204.153 30.4Z" id="Shape" fill="#448AFF" fill-rule="evenodd" stroke="none" />
    </g>
  </g>
</svg>