<?xml version="1.0" standalone="no"?>
<!DOCTYPE svg PUBLIC "-//W3C//DTD SVG 20010904//EN"
 "http://www.w3.org/TR/2001/REC-SVG-20010904/DTD/svg10.dtd">
<svg version="1.0" xmlns="http://www.w3.org/2000/svg"
 width="512.000000pt" height="512.000000pt" viewBox="0 0 512.000000 512.000000"
 preserveAspectRatio="xMidYMid meet">
<metadata>
Created by potrace 1.14, written by Peter Selinger 2001-2017
</metadata>
<g transform="translate(0.000000,512.000000) scale(0.100000,-0.100000)"
fill="#000000" stroke="none">
<path d="M1750 4566 c-306 -62 -550 -310 -606 -616 -25 -140 1 -323 64 -454
41 -84 119 -195 154 -220 20 -14 19 -19 -72 -268 -51 -139 -113 -310 -139
-380 l-46 -128 -325 -1 c-179 -1 -328 -1 -332 0 -3 0 -32 -6 -65 -15 -185 -48
-334 -201 -372 -381 -16 -80 -14 -1102 3 -1173 32 -136 139 -275 256 -332 124
-61 37 -58 1647 -56 l1471 3 25 23 c14 13 28 35 31 48 6 24 8 24 131 24 117 0
125 -1 125 -19 0 -33 45 -72 88 -78 33 -4 44 -1 71 23 18 16 33 39 34 52 1 22
4 22 129 22 120 0 128 -1 128 -19 0 -11 11 -33 24 -48 l24 -28 268 -3 c161 -2
287 1 316 8 122 26 242 119 294 227 50 107 55 245 12 351 -6 15 -25 68 -43
117 -55 151 -381 1044 -418 1145 -19 52 -56 154 -82 225 -26 72 -63 173 -82
225 -19 52 -46 127 -60 165 -14 39 -29 79 -33 90 -5 11 -20 51 -34 89 l-26 69
38 41 c144 157 213 339 206 549 -3 98 -4 109 -30 195 -75 260 -301 467 -574
526 -82 18 -263 13 -345 -9 -556 -149 -756 -836 -365 -1254 l42 -45 -148 -405
c-81 -223 -163 -449 -182 -501 -76 -212 -105 -282 -113 -269 -4 8 -39 104 -79
214 -39 110 -77 217 -85 238 -36 91 -47 119 -91 242 -25 72 -61 171 -79 220
-103 278 -97 257 -77 278 9 11 28 32 41 46 42 45 107 154 134 221 151 387 -38
826 -423 983 -130 53 -294 70 -430 43z"/>
</g>
</svg>
